<mxfile host="app.diagrams.net" agent="Mozilla/5.0 (Macintosh; Intel Mac OS X 10.15; rv:128.0) Gecko/20100101 Firefox/128.0" version="28.0.6">
  <diagram name="第 1 页" id="OoaUT_aOYlyeEdyREh90">
    <mxGraphModel dx="1425" dy="739" grid="1" gridSize="10" guides="1" tooltips="1" connect="1" arrows="1" fold="1" page="1" pageScale="1" pageWidth="827" pageHeight="1169" math="0" shadow="0">
      <root>
        <mxCell id="0" />
        <mxCell id="1" parent="0" />
        <mxCell id="4tHnzic4T1DWHJhX2jMt-5" style="rounded=0;orthogonalLoop=1;jettySize=auto;html=1;exitX=0.5;exitY=1;exitDx=0;exitDy=0;" edge="1" parent="1" source="4tHnzic4T1DWHJhX2jMt-2" target="4tHnzic4T1DWHJhX2jMt-4">
          <mxGeometry relative="1" as="geometry" />
        </mxCell>
        <mxCell id="4tHnzic4T1DWHJhX2jMt-2" value="OP1" style="rounded=1;whiteSpace=wrap;html=1;" vertex="1" parent="1">
          <mxGeometry x="160" y="170" width="70" height="40" as="geometry" />
        </mxCell>
        <mxCell id="4tHnzic4T1DWHJhX2jMt-9" style="edgeStyle=orthogonalEdgeStyle;rounded=0;orthogonalLoop=1;jettySize=auto;html=1;exitX=0.5;exitY=1;exitDx=0;exitDy=0;entryX=0.5;entryY=0;entryDx=0;entryDy=0;" edge="1" parent="1" source="4tHnzic4T1DWHJhX2jMt-4" target="4tHnzic4T1DWHJhX2jMt-8">
          <mxGeometry relative="1" as="geometry" />
        </mxCell>
        <mxCell id="4tHnzic4T1DWHJhX2jMt-4" value="OP2" style="rounded=1;whiteSpace=wrap;html=1;" vertex="1" parent="1">
          <mxGeometry x="160" y="230" width="70" height="40" as="geometry" />
        </mxCell>
        <mxCell id="4tHnzic4T1DWHJhX2jMt-7" style="rounded=0;orthogonalLoop=1;jettySize=auto;html=1;exitX=0.5;exitY=1;exitDx=0;exitDy=0;" edge="1" parent="1" source="4tHnzic4T1DWHJhX2jMt-6" target="4tHnzic4T1DWHJhX2jMt-2">
          <mxGeometry relative="1" as="geometry" />
        </mxCell>
        <mxCell id="4tHnzic4T1DWHJhX2jMt-6" value="input feature" style="ellipse;whiteSpace=wrap;html=1;" vertex="1" parent="1">
          <mxGeometry x="160" y="90" width="65" height="40" as="geometry" />
        </mxCell>
        <mxCell id="4tHnzic4T1DWHJhX2jMt-11" style="rounded=0;orthogonalLoop=1;jettySize=auto;html=1;exitX=0.5;exitY=1;exitDx=0;exitDy=0;entryX=0.5;entryY=0;entryDx=0;entryDy=0;" edge="1" parent="1" source="4tHnzic4T1DWHJhX2jMt-8" target="4tHnzic4T1DWHJhX2jMt-10">
          <mxGeometry relative="1" as="geometry" />
        </mxCell>
        <mxCell id="4tHnzic4T1DWHJhX2jMt-8" value="......" style="rounded=1;whiteSpace=wrap;html=1;strokeColor=none;" vertex="1" parent="1">
          <mxGeometry x="160" y="300" width="70" height="40" as="geometry" />
        </mxCell>
        <mxCell id="4tHnzic4T1DWHJhX2jMt-16" style="rounded=0;orthogonalLoop=1;jettySize=auto;html=1;entryX=0.5;entryY=1;entryDx=0;entryDy=0;" edge="1" parent="1" source="4tHnzic4T1DWHJhX2jMt-10" target="4tHnzic4T1DWHJhX2jMt-15">
          <mxGeometry relative="1" as="geometry" />
        </mxCell>
        <mxCell id="4tHnzic4T1DWHJhX2jMt-10" value="loss" style="rounded=1;whiteSpace=wrap;html=1;" vertex="1" parent="1">
          <mxGeometry x="210" y="420" width="65" height="40" as="geometry" />
        </mxCell>
        <mxCell id="4tHnzic4T1DWHJhX2jMt-12" value="&lt;div&gt;OP2_bwd&lt;/div&gt;" style="rounded=1;whiteSpace=wrap;html=1;" vertex="1" parent="1">
          <mxGeometry x="290" y="230" width="70" height="40" as="geometry" />
        </mxCell>
        <mxCell id="4tHnzic4T1DWHJhX2jMt-13" value="OP1_bwd" style="rounded=1;whiteSpace=wrap;html=1;" vertex="1" parent="1">
          <mxGeometry x="290" y="170" width="70" height="40" as="geometry" />
        </mxCell>
        <mxCell id="4tHnzic4T1DWHJhX2jMt-15" value="......" style="rounded=1;whiteSpace=wrap;html=1;strokeColor=none;" vertex="1" parent="1">
          <mxGeometry x="290" y="300" width="70" height="40" as="geometry" />
        </mxCell>
      </root>
    </mxGraphModel>
  </diagram>
</mxfile>
